<svg width="717" height="717" viewBox="0 0 717 717" fill="none" xmlns="http://www.w3.org/2000/svg">
<circle cx="358.5" cy="358.5" r="358.5" fill="url(#paint0_linear_80421_83)"/>
<path d="M343.847 498.629C327.304 498.629 315.577 493.938 308.663 484.556C301.997 474.927 298.664 460.483 298.664 441.225C298.664 429.373 300.516 411.72 304.219 388.264C307.923 364.809 313.231 334.069 320.144 296.047C314.466 296.787 307.182 297.898 298.294 299.38C289.652 300.861 280.887 302.466 271.999 304.194C263.11 305.676 255.703 307.157 249.777 308.639C248.296 303.947 247.432 299.38 247.185 294.936C246.938 290.491 246.815 287.035 246.815 284.566C246.815 270.492 249.284 259.011 254.222 250.123C259.407 241.235 266.196 234.692 274.591 230.494C282.986 226.297 292.121 224.198 301.997 224.198C314.589 224.198 327.058 225.433 339.403 227.902C351.748 230.124 364.093 232.47 376.438 234.939C389.03 237.408 401.869 238.889 414.954 239.383C424.09 237.654 434.213 235.432 445.323 232.716C456.681 230.001 466.557 227.408 474.951 224.939C476.433 229.63 477.297 234.198 477.544 238.642C477.791 243.086 477.914 246.543 477.914 249.012C477.914 263.085 475.075 274.566 469.396 283.455C463.964 292.343 456.557 298.886 447.175 303.083C438.04 307.281 427.917 309.379 416.806 309.379C413.596 309.379 410.51 309.379 407.547 309.379C404.585 309.132 401.745 308.885 399.029 308.639C396.807 319.749 394.462 331.353 391.993 343.452C389.77 355.55 387.672 367.278 385.697 378.635C383.721 389.746 381.993 399.745 380.512 408.634C379.277 417.275 378.66 423.818 378.66 428.262C378.66 440.854 379.524 451.471 381.252 460.113C383.228 468.754 386.067 476.038 389.77 481.963C374.956 493.074 359.648 498.629 343.847 498.629Z" fill="white"/>
<defs>
<linearGradient id="paint0_linear_80421_83" x1="358.5" y1="0" x2="358.5" y2="717" gradientUnits="userSpaceOnUse">
<stop stop-color="#FF9500"/>
<stop offset="1" stop-color="#995900"/>
</linearGradient>
</defs>
</svg>
