<svg width="180" height="40" viewBox="0 0 180 40" fill="none" xmlns="http://www.w3.org/2000/svg">
  <path d="M13.584 29H10.296V13.4H4.536V10.6H19.344V13.4H13.584V29ZM33.4521 29H30.1641V21.64H21.7001V29H18.4121V10.6H21.7001V18.84H30.1641V10.6H33.4521V29ZM38.6467 29V10.6H51.3667V13.352H41.9347V18.312H50.4707V21.064H41.9347V26.248H51.7027V29H38.6467ZM60.0358 29V10.6H63.3238V26.2H72.4038V29H60.0358ZM78.5913 29V10.6H81.8793V29H78.5913ZM96.8319 29H93.5439V13.4H87.7839V10.6H102.592V13.4H96.8319V29ZM111.984 29.336C109.872 29.336 108.117 28.84 106.718 27.848C105.32 26.856 104.334 25.416 103.76 23.528L106.767 22.568C107.183 23.992 107.856 25.064 108.785 25.784C109.713 26.504 110.808 26.864 112.071 26.864C113.149 26.864 114.04 26.592 114.744 26.048C115.464 25.488 115.824 24.728 115.824 23.768C115.824 22.984 115.6 22.336 115.152 21.824C114.72 21.296 114.216 20.888 113.64 20.6C113.064 20.296 112.264 19.968 111.24 19.616C109.736 19.104 108.52 18.608 107.592 18.128C106.68 17.648 105.889 16.944 105.217 16.016C104.561 15.088 104.232 13.88 104.232 12.392C104.232 11.096 104.569 9.976 105.24 9.032C105.912 8.088 106.832 7.368 108 6.872C109.184 6.376 110.512 6.128 111.984 6.128C113.808 6.128 115.392 6.552 116.736 7.4C118.096 8.248 119.104 9.448 119.76 11L116.88 12.08C116.4 11.024 115.72 10.224 114.84 9.68C113.976 9.12 112.96 8.84 111.792 8.84C110.592 8.84 109.632 9.104 108.912 9.632C108.192 10.16 107.832 10.872 107.832 11.768C107.832 12.536 108.056 13.16 108.504 13.64C108.952 14.12 109.464 14.496 110.04 14.768C110.632 15.04 111.448 15.352 112.488 15.704C114.008 16.2 115.216 16.704 116.112 17.216C117.024 17.712 117.8 18.448 118.44 19.424C119.096 20.384 119.424 21.64 119.424 23.192C119.424 24.552 119.08 25.736 118.392 26.744C117.704 27.736 116.76 28.512 115.56 29.072C114.376 29.248 113.184 29.336 111.984 29.336ZM134.74 10.6H138.1L145.42 29H141.916L140.116 24.424H132.7L130.9 29H127.42L134.74 10.6ZM139.252 21.784L136.42 14.464L133.564 21.784H139.252ZM150.083 29V10.6H157.259C159.467 10.6 161.219 11.264 162.515 12.592C163.828 13.904 164.483 15.568 164.483 17.584C164.483 19.6 163.811 21.28 162.467 22.624C161.138 23.952 159.419 24.616 157.307 24.616H153.371V29H150.083ZM153.371 21.904H157.163C158.291 21.904 159.163 21.568 159.779 20.896C160.411 20.224 160.731 19.168 160.731 17.728V17.44C160.731 16 160.419 14.936 159.803 14.248C159.187 13.56 158.291 13.216 157.115 13.216H153.371V21.904ZM170.191 29V10.6H179.559C180.303 10.6 180.96 10.84 181.527 11.32C182.095 11.784 182.383 12.368 182.383 13.072V20.12C182.383 20.808 182.087 21.4 181.503 21.896C180.919 22.376 180.279 22.616 179.583 22.616H173.479V29H170.191ZM173.479 19.904H178.535C178.759 19.904 178.951 19.816 179.111 19.64C179.287 19.464 179.375 19.264 179.375 19.04V14.176C179.375 13.952 179.287 13.752 179.111 13.576C178.951 13.4 178.759 13.312 178.535 13.312H173.479V19.904Z" fill="currentColor"/>
</svg> 